<svg version="1.1" id="Layer_1" xmlns="http://www.w3.org/2000/svg" xmlns:xlink="http://www.w3.org/1999/xlink" x="0px" y="0px"
	 width="100%" viewBox="0 0 529 507" enable-background="new 0 0 529 507" xml:space="preserve">
<path fill="#FEFFFF" opacity="1.000000" stroke="none" 
	d="
M301.000000,508.000000 
	C200.690750,508.000000 100.881485,508.000000 1.036114,508.000000 
	C1.036114,339.064850 1.036114,170.129669 1.036114,1.097248 
	C177.225922,1.097248 353.451935,1.097248 529.838989,1.097248 
	C529.838989,169.999878 529.838989,338.999939 529.838989,508.000000 
	C453.796295,508.000000 377.648163,508.000000 301.000000,508.000000 
M106.459778,301.809906 
	C117.982079,301.886475 129.504364,301.979828 141.026733,301.994843 
	C141.667389,301.995667 142.308899,301.348846 143.115768,300.078064 
	C143.133911,216.871536 143.154755,133.665009 143.160782,50.458492 
	C143.161041,46.969185 143.023071,43.479874 142.613007,39.184929 
	C131.352692,39.084957 120.092438,38.966003 108.831924,38.932594 
	C108.162674,38.930607 107.491386,39.614891 106.228943,40.267120 
	C104.618263,42.166275 103.003525,44.062012 101.397530,45.965126 
	C86.832161,63.225208 72.270744,80.488640 57.700157,97.744331 
	C56.272202,99.435432 54.819035,100.929039 56.897633,103.282509 
	C60.726887,107.618141 64.357361,112.129333 68.097664,116.599625 
	C80.843880,108.335548 93.337311,100.235367 105.893822,93.044449 
	C105.907455,130.207672 105.899109,167.370926 105.941391,204.534119 
	C105.977982,236.693192 106.072037,268.852203 106.459778,301.809906 
M381.801147,156.154144 
	C381.837341,164.034012 381.873505,171.913879 381.539459,180.506775 
	C381.386932,182.589539 381.234406,184.672318 381.062775,187.015778 
	C403.113464,183.414871 410.948395,196.199936 413.721985,214.976120 
	C414.308929,214.865097 414.895844,214.754059 415.482758,214.643036 
	C416.646484,209.326660 417.810211,204.010284 419.362915,198.089432 
	C420.169708,189.681259 421.681641,181.266068 421.598206,172.866730 
	C421.501862,163.168564 419.999023,153.484390 419.132599,142.972702 
	C416.749542,126.520012 411.338318,111.040184 402.933167,96.789467 
	C385.050812,66.470345 359.984833,45.401508 324.749420,38.108219 
	C312.333679,35.538322 299.842102,35.822605 287.299591,37.478241 
	C261.848358,40.837864 240.671051,52.589867 222.976654,70.662964 
	C199.552963,94.587975 187.122482,123.580040 184.544708,156.942047 
	C181.741165,193.226288 189.553589,226.619888 211.127686,256.319397 
	C222.952927,272.598389 237.715286,285.591125 255.680359,294.759796 
	C257.219055,295.545135 260.352692,295.825287 261.209747,294.906952 
	C267.416168,288.256592 273.227509,281.237457 279.451813,274.000366 
	C261.522156,265.129425 247.952530,252.031738 238.927963,234.935562 
	C233.406937,224.476501 229.959000,212.923111 225.635101,201.082916 
	C224.757431,190.074295 223.209564,179.066040 223.203644,168.056946 
	C223.198456,158.390533 224.921371,148.723190 226.256622,138.365143 
	C227.185867,135.030731 228.003662,131.660477 229.063065,128.367935 
	C234.543121,111.336266 243.052887,96.145676 256.059204,83.616493 
	C280.207855,60.353813 314.789429,57.488853 341.768799,76.919380 
	C357.231903,88.055878 367.708710,103.254532 373.780670,121.050346 
	C377.547577,132.090591 379.251251,143.834824 381.801147,156.154144 
M362.503693,350.042938 
	C363.067017,348.847015 363.650482,347.660126 364.190338,346.453735 
	C367.686676,338.641022 365.031067,333.956848 356.473755,334.224426 
	C348.945160,334.459869 341.459412,335.932220 333.939606,336.712585 
	C332.695404,336.841736 331.373627,336.223602 329.761017,335.881500 
	C330.637665,333.989166 331.124451,332.753021 331.758087,331.597443 
	C351.102661,296.319580 370.487091,261.063538 389.784698,225.760010 
	C392.086792,221.548508 394.241455,217.200394 395.894531,212.705978 
	C397.536743,208.241135 396.967590,203.640579 393.363953,200.239365 
	C389.780548,196.857285 385.142609,197.258133 381.114105,199.041016 
	C376.445831,201.107071 371.527527,203.381500 367.853302,206.789673 
	C349.602661,223.718842 330.578308,240.019836 313.986389,258.483093 
	C288.976257,286.313934 265.736542,315.737213 241.815140,344.542419 
	C239.764221,347.012085 238.009995,349.231018 234.354935,349.481537 
	C230.663162,349.734589 226.987106,350.667511 223.378708,351.593170 
	C215.652161,353.575287 207.944595,355.644318 200.282776,357.862610 
	C190.295502,360.754181 180.262665,363.544312 170.448898,366.952454 
	C166.349869,368.375946 162.351013,370.816803 159.127258,373.709625 
	C157.621841,375.060425 157.073135,378.963379 157.860931,381.037170 
	C159.055893,384.182770 162.177841,382.949432 164.789780,382.004150 
	C177.109680,377.545380 189.372910,372.901733 201.831711,368.865204 
	C209.906982,366.248901 218.283981,364.563843 226.525787,362.461548 
	C226.389236,364.783020 225.703949,366.051849 224.893921,367.235291 
	C207.038452,393.321869 188.966309,419.263397 171.399765,445.542938 
	C164.110657,456.447449 157.764847,467.995483 151.259216,479.404327 
	C148.713257,483.869171 150.683807,486.655151 155.828918,487.077820 
	C159.518875,487.380981 161.582886,485.604004 163.390945,482.592865 
	C188.257523,441.179718 215.343399,401.245117 243.888184,362.292175 
	C244.891083,360.923584 246.384613,359.392456 247.911575,359.024353 
	C253.244171,357.738800 258.676208,356.832397 264.099915,355.966431 
	C271.155396,354.839966 278.240417,353.899475 285.310150,352.861328 
	C293.027649,351.728027 300.742249,350.574585 308.966492,349.354523 
	C308.616364,351.052368 308.598419,351.732361 308.340454,352.304016 
	C301.246216,368.025909 293.942657,383.657135 287.121124,399.496094 
	C284.965332,404.501648 283.667633,409.986633 282.754730,415.383698 
	C281.992889,419.887268 284.943054,422.133453 289.087433,420.457245 
	C291.055878,419.661072 293.181274,417.812103 294.028076,415.904144 
	C303.463135,394.646545 312.623871,373.267334 322.001465,351.983856 
	C322.699982,350.398468 324.334564,348.382690 325.809052,348.121796 
	C334.004425,346.671814 342.284821,345.702393 351.605164,344.421570 
	C350.475159,347.104431 349.896210,348.577545 349.242157,350.016541 
	C342.094025,365.744415 334.909515,381.455811 327.799988,397.201080 
	C326.515533,400.045685 325.809937,402.968994 329.077057,405.179993 
	C332.688721,407.624176 334.915466,404.839111 337.231720,402.894806 
	C338.347107,401.958496 339.048126,400.529022 339.938446,399.324066 
	C352.582214,382.212067 366.286407,366.027649 381.972809,351.602783 
	C386.307404,347.616852 390.856140,343.863037 397.456543,342.204651 
	C396.884094,343.925842 396.615082,345.009674 396.174164,346.018311 
	C391.335876,357.086365 386.170593,368.025421 381.778839,379.266998 
	C380.280151,383.103271 379.696747,387.885010 380.465027,391.895721 
	C382.029327,400.062256 391.833282,404.160095 400.164642,399.773926 
	C406.692627,396.337219 412.364258,391.259949 418.358246,386.832855 
	C419.818268,385.754517 421.050018,384.367157 422.826691,382.712036 
	C423.997833,398.131622 431.696594,403.771545 445.058411,398.840118 
	C461.175415,392.891846 472.909149,380.988373 483.436707,367.888000 
	C484.391144,366.700317 484.847229,364.343597 484.369598,362.920959 
	C483.057190,359.012299 480.682526,358.970367 476.784088,362.803772 
	C466.449982,372.965454 456.230530,383.265839 443.186432,390.049957 
	C441.419067,390.969177 438.236847,392.146301 437.479767,391.402496 
	C435.957458,389.906738 434.661865,386.979736 435.041931,384.979553 
	C436.068268,379.578125 437.313660,373.998047 439.752075,369.129944 
	C445.254272,358.145264 451.656952,347.614594 457.361938,336.725647 
	C458.315277,334.906097 458.486694,330.901184 457.464966,330.212555 
	C455.647278,328.987488 452.380463,328.780029 450.205933,329.539276 
	C448.078949,330.281921 446.192474,332.516388 444.842407,334.527069 
	C441.139771,340.041504 437.295013,345.545898 434.367218,351.479004 
	C426.198395,368.032806 412.669250,379.418823 398.253662,390.005127 
	C396.271301,391.460846 393.719208,392.140686 391.430878,393.179749 
	C391.045532,392.806183 390.660217,392.432617 390.274872,392.059082 
	C391.611145,388.449554 392.871246,384.809662 394.297729,381.236176 
	C398.785278,369.994568 403.728271,358.914886 407.708862,347.498444 
	C409.973999,341.002075 406.537354,336.327271 399.639954,334.723816 
	C391.157379,332.751831 384.506042,337.145416 378.061646,341.558990 
	C373.446014,344.720062 369.182007,348.402496 364.830383,351.937561 
	C362.914246,353.494080 361.882355,353.671082 362.503693,350.042938 
M503.071869,422.118469 
	C492.576660,422.444916 482.077759,422.682434 471.587128,423.119049 
	C456.556335,423.744659 441.526794,424.428101 426.506134,425.257874 
	C417.723083,425.743073 408.945587,426.427246 400.188690,427.263672 
	C389.500519,428.284546 378.823059,429.449402 368.166016,430.755981 
	C358.298340,431.965759 348.469696,433.489929 338.612823,434.792389 
	C328.100830,436.181335 317.550385,437.300232 307.064301,438.857513 
	C297.519775,440.274963 288.046143,442.164062 278.528320,443.768402 
	C268.752533,445.416260 258.915192,446.735901 249.189545,448.633698 
	C239.752045,450.475250 230.402725,452.788147 221.053513,455.054260 
	C216.537430,456.148895 211.960724,457.246765 207.683075,459.004242 
	C202.911682,460.964569 202.041092,466.025146 206.211075,468.633270 
	C208.370758,469.984039 212.171234,469.655029 214.928421,468.932495 
	C223.725540,466.627075 232.279388,463.351807 241.118454,461.258942 
	C251.184402,458.875580 261.429047,457.197479 271.645020,455.509308 
	C285.775879,453.174255 299.953918,451.125214 314.109070,448.936462 
	C326.569794,447.009674 338.999634,444.854187 351.495392,443.193207 
	C359.412048,442.140869 367.427856,441.847473 375.393341,441.147247 
	C394.274872,439.487457 413.131897,437.483063 432.037659,436.181702 
	C455.779694,434.547424 479.556824,433.400604 503.328613,432.244934 
	C506.798187,432.076263 508.871552,430.846802 509.034851,427.544739 
	C509.193451,424.337189 507.573822,422.126770 503.071869,422.118469 
M477.885010,284.253784 
	C469.739410,283.839508 463.628510,289.197845 460.837433,299.894562 
	C460.283752,302.016388 460.765594,305.859192 462.105743,306.652954 
	C463.738953,307.620300 467.681427,307.072937 469.052673,305.657440 
	C473.404633,301.165039 477.202423,296.090912 480.856354,290.985382 
	C482.783539,288.292572 481.572052,285.930145 477.885010,284.253784 
z"/>
<path fill="#3D96E5" opacity="1.000000" stroke="none" 
	d="
M225.580048,201.861176 
	C229.959000,212.923111 233.406937,224.476501 238.927963,234.935562 
	C247.952530,252.031738 261.522156,265.129425 279.451813,274.000366 
	C273.227509,281.237457 267.416168,288.256592 261.209747,294.906952 
	C260.352692,295.825287 257.219055,295.545135 255.680359,294.759796 
	C237.715286,285.591125 222.952927,272.598389 211.127686,256.319397 
	C189.553589,226.619888 181.741165,193.226288 184.544708,156.942047 
	C187.122482,123.580040 199.552963,94.587975 222.976654,70.662964 
	C240.671051,52.589867 261.848358,40.837864 287.299591,37.478241 
	C299.842102,35.822605 312.333679,35.538322 324.749420,38.108219 
	C359.984833,45.401508 385.050812,66.470345 402.933167,96.789467 
	C411.338318,111.040184 416.749542,126.520012 419.075623,143.856155 
	C419.003754,162.724380 418.988831,180.709137 418.973938,198.693909 
	C417.810211,204.010284 416.646484,209.326660 415.482758,214.643036 
	C414.895844,214.754059 414.308929,214.865097 413.721985,214.976120 
	C410.948395,196.199936 403.113464,183.414871 381.062775,187.015778 
	C381.234406,184.672318 381.386932,182.589539 381.813934,180.445190 
	C382.165894,180.528854 382.212311,180.714432 382.331116,180.806122 
	C382.419739,180.874512 382.725250,180.822800 382.725220,180.822495 
	C382.813751,171.990204 382.884888,163.157730 382.956055,154.325272 
	C382.597717,154.637878 382.239380,154.950470 381.881042,155.263062 
	C379.251251,143.834824 377.547577,132.090591 373.780670,121.050346 
	C367.708710,103.254532 357.231903,88.055878 341.768799,76.919380 
	C314.789429,57.488853 280.207855,60.353813 256.059204,83.616493 
	C243.052887,96.145676 234.543121,111.336266 229.063065,128.367935 
	C228.003662,131.660477 227.185867,135.030731 225.788239,138.943176 
	C224.215012,144.810196 222.434540,150.063431 222.152222,155.395966 
	C221.635361,165.158539 221.590515,174.992035 222.159210,184.748718 
	C222.494431,190.499786 224.387558,196.160065 225.580048,201.861176 
z"/>
<path fill="#3F95E2" opacity="1.000000" stroke="none" 
	d="
M362.317230,350.379913 
	C361.882355,353.671082 362.914246,353.494080 364.830383,351.937561 
	C369.182007,348.402496 373.446014,344.720062 378.061646,341.558990 
	C384.506042,337.145416 391.157379,332.751831 399.639954,334.723816 
	C406.537354,336.327271 409.973999,341.002075 407.708862,347.498444 
	C403.728271,358.914886 398.785278,369.994568 394.297729,381.236176 
	C392.871246,384.809662 391.611145,388.449554 390.274872,392.059082 
	C390.660217,392.432617 391.045532,392.806183 391.430878,393.179749 
	C393.719208,392.140686 396.271301,391.460846 398.253662,390.005127 
	C412.669250,379.418823 426.198395,368.032806 434.367218,351.479004 
	C437.295013,345.545898 441.139771,340.041504 444.842407,334.527069 
	C446.192474,332.516388 448.078949,330.281921 450.205933,329.539276 
	C452.380463,328.780029 455.647278,328.987488 457.464966,330.212555 
	C458.486694,330.901184 458.315277,334.906097 457.361938,336.725647 
	C451.656952,347.614594 445.254272,358.145264 439.752075,369.129944 
	C437.313660,373.998047 436.068268,379.578125 435.041931,384.979553 
	C434.661865,386.979736 435.957458,389.906738 437.479767,391.402496 
	C438.236847,392.146301 441.419067,390.969177 443.186432,390.049957 
	C456.230530,383.265839 466.449982,372.965454 476.784088,362.803772 
	C480.682526,358.970367 483.057190,359.012299 484.369598,362.920959 
	C484.847229,364.343597 484.391144,366.700317 483.436707,367.888000 
	C472.909149,380.988373 461.175415,392.891846 445.058411,398.840118 
	C431.696594,403.771545 423.997833,398.131622 422.826691,382.712036 
	C421.050018,384.367157 419.818268,385.754517 418.358246,386.832855 
	C412.364258,391.259949 406.692627,396.337219 400.164642,399.773926 
	C391.833282,404.160095 382.029327,400.062256 380.465027,391.895721 
	C379.696747,387.885010 380.280151,383.103271 381.778839,379.266998 
	C386.170593,368.025421 391.335876,357.086365 396.174164,346.018311 
	C396.615082,345.009674 396.884094,343.925842 397.456543,342.204651 
	C390.856140,343.863037 386.307404,347.616852 381.972809,351.602783 
	C366.286407,366.027649 352.582214,382.212067 339.938446,399.324066 
	C339.048126,400.529022 338.347107,401.958496 337.231720,402.894806 
	C334.915466,404.839111 332.688721,407.624176 329.077057,405.179993 
	C325.809937,402.968994 326.515533,400.045685 327.799988,397.201080 
	C334.909515,381.455811 342.094025,365.744415 349.242157,350.016541 
	C349.896210,348.577545 350.475159,347.104431 351.605164,344.421570 
	C342.284821,345.702393 334.004425,346.671814 325.809052,348.121796 
	C324.334564,348.382690 322.699982,350.398468 322.001465,351.983856 
	C312.623871,373.267334 303.463135,394.646545 294.028076,415.904144 
	C293.181274,417.812103 291.055878,419.661072 289.087433,420.457245 
	C284.943054,422.133453 281.992889,419.887268 282.754730,415.383698 
	C283.667633,409.986633 284.965332,404.501648 287.121124,399.496094 
	C293.942657,383.657135 301.246216,368.025909 308.340454,352.304016 
	C308.598419,351.732361 308.616364,351.052368 308.966492,349.354523 
	C300.742249,350.574585 293.027649,351.728027 285.310150,352.861328 
	C278.240417,353.899475 271.155396,354.839966 264.099915,355.966431 
	C258.676208,356.832397 253.244171,357.738800 247.911575,359.024353 
	C246.384613,359.392456 244.891083,360.923584 243.888184,362.292175 
	C215.343399,401.245117 188.257523,441.179718 163.390945,482.592865 
	C161.582886,485.604004 159.518875,487.380981 155.828918,487.077820 
	C150.683807,486.655151 148.713257,483.869171 151.259216,479.404327 
	C157.764847,467.995483 164.110657,456.447449 171.399765,445.542938 
	C188.966309,419.263397 207.038452,393.321869 224.893921,367.235291 
	C225.703949,366.051849 226.389236,364.783020 226.525787,362.461548 
	C218.283981,364.563843 209.906982,366.248901 201.831711,368.865204 
	C189.372910,372.901733 177.109680,377.545380 164.789780,382.004150 
	C162.177841,382.949432 159.055893,384.182770 157.860931,381.037170 
	C157.073135,378.963379 157.621841,375.060425 159.127258,373.709625 
	C162.351013,370.816803 166.349869,368.375946 170.448898,366.952454 
	C180.262665,363.544312 190.295502,360.754181 200.282776,357.862610 
	C207.944595,355.644318 215.652161,353.575287 223.378708,351.593170 
	C226.987106,350.667511 230.663162,349.734589 234.354935,349.481537 
	C238.009995,349.231018 239.764221,347.012085 241.815140,344.542419 
	C265.736542,315.737213 288.976257,286.313934 313.986389,258.483093 
	C330.578308,240.019836 349.602661,223.718842 367.853302,206.789673 
	C371.527527,203.381500 376.445831,201.107071 381.114105,199.041016 
	C385.142609,197.258133 389.780548,196.857285 393.363953,200.239365 
	C396.967590,203.640579 397.536743,208.241135 395.894531,212.705978 
	C394.241455,217.200394 392.086792,221.548508 389.784698,225.760010 
	C370.487091,261.063538 351.102661,296.319580 331.758087,331.597443 
	C331.124451,332.753021 330.637665,333.989166 329.761017,335.881500 
	C331.373627,336.223602 332.695404,336.841736 333.939606,336.712585 
	C341.459412,335.932220 348.945160,334.459869 356.473755,334.224426 
	C365.031067,333.956848 367.686676,338.641022 364.190338,346.453735 
	C363.650482,347.660126 363.067017,348.847015 362.317230,350.379913 
M378.233185,221.658508 
	C379.296509,219.067917 380.359863,216.477310 381.423187,213.886703 
	C380.729523,213.419052 380.035858,212.951385 379.342194,212.483734 
	C331.806885,250.480911 294.037109,297.650848 255.446838,345.971069 
	C259.172241,345.309875 261.553345,344.799866 263.959625,344.478180 
	C269.229004,343.773682 274.504669,343.104431 279.790283,342.537018 
	C283.549225,342.133545 287.356934,342.116486 291.092529,341.577972 
	C297.603516,340.639374 304.118774,339.628937 310.540222,338.227112 
	C312.720581,337.751129 315.551453,336.514099 316.516205,334.761322 
	C337.105164,297.353912 357.470551,259.823425 378.233185,221.658508 
z"/>
<path fill="#3C96E5" opacity="1.000000" stroke="none" 
	d="
M105.830734,92.135193 
	C93.337311,100.235367 80.843880,108.335548 68.097664,116.599625 
	C64.357361,112.129333 60.726887,107.618141 56.897633,103.282509 
	C54.819035,100.929039 56.272202,99.435432 57.700157,97.744331 
	C72.270744,80.488640 86.832161,63.225208 101.397530,45.965126 
	C103.003525,44.062012 104.618263,42.166275 107.006729,40.131741 
	C119.183067,40.004662 130.581635,40.012959 141.990036,40.488487 
	C141.981003,127.607010 141.962128,214.258286 141.481171,300.939636 
	C129.721558,300.949158 118.423988,300.928589 107.093201,300.446350 
	C107.044014,232.709824 107.038269,165.434998 106.962563,98.160271 
	C106.960297,96.151497 106.224518,94.143532 105.830734,92.135193 
z"/>
<path fill="#4097E5" opacity="1.000000" stroke="none" 
	d="
M503.516693,422.112732 
	C507.573822,422.126770 509.193451,424.337189 509.034851,427.544739 
	C508.871552,430.846802 506.798187,432.076263 503.328613,432.244934 
	C479.556824,433.400604 455.779694,434.547424 432.037659,436.181702 
	C413.131897,437.483063 394.274872,439.487457 375.393341,441.147247 
	C367.427856,441.847473 359.412048,442.140869 351.495392,443.193207 
	C338.999634,444.854187 326.569794,447.009674 314.109070,448.936462 
	C299.953918,451.125214 285.775879,453.174255 271.645020,455.509308 
	C261.429047,457.197479 251.184402,458.875580 241.118454,461.258942 
	C232.279388,463.351807 223.725540,466.627075 214.928421,468.932495 
	C212.171234,469.655029 208.370758,469.984039 206.211075,468.633270 
	C202.041092,466.025146 202.911682,460.964569 207.683075,459.004242 
	C211.960724,457.246765 216.537430,456.148895 221.053513,455.054260 
	C230.402725,452.788147 239.752045,450.475250 249.189545,448.633698 
	C258.915192,446.735901 268.752533,445.416260 278.528320,443.768402 
	C288.046143,442.164062 297.519775,440.274963 307.064301,438.857513 
	C317.550385,437.300232 328.100830,436.181335 338.612823,434.792389 
	C348.469696,433.489929 358.298340,431.965759 368.166016,430.755981 
	C378.823059,429.449402 389.500519,428.284546 400.188690,427.263672 
	C408.945587,426.427246 417.723083,425.743073 426.506134,425.257874 
	C441.526794,424.428101 456.556335,423.744659 471.587128,423.119049 
	C482.077759,422.682434 492.576660,422.444916 503.516693,422.112732 
z"/>
<path fill="#4194E0" opacity="1.000000" stroke="none" 
	d="
M478.240601,284.409424 
	C481.572052,285.930145 482.783539,288.292572 480.856354,290.985382 
	C477.202423,296.090912 473.404633,301.165039 469.052673,305.657440 
	C467.681427,307.072937 463.738953,307.620300 462.105743,306.652954 
	C460.765594,305.859192 460.283752,302.016388 460.837433,299.894562 
	C463.628510,289.197845 469.739410,283.839508 478.240601,284.409424 
z"/>
<path fill="#3F88CA" opacity="1.000000" stroke="none" 
	d="
M141.943237,300.909576 
	C141.962128,214.258286 141.981003,127.607010 142.232361,40.477493 
	C142.464844,39.999260 142.949493,39.990562 142.949493,39.990562 
	C143.023071,43.479874 143.161041,46.969185 143.160782,50.458492 
	C143.154755,133.665009 143.133911,216.871536 142.780563,300.524231 
	C142.278000,300.950134 142.110626,300.929871 141.943237,300.909576 
z"/>
<path fill="#3F7CB5" opacity="1.000000" stroke="none" 
	d="
M105.862274,92.589821 
	C106.224518,94.143532 106.960297,96.151497 106.962563,98.160271 
	C107.038269,165.434998 107.044014,232.709824 106.847038,300.480560 
	C106.634102,300.976501 106.140694,301.011261 106.140694,301.011261 
	C106.072037,268.852203 105.977982,236.693192 105.941391,204.534119 
	C105.899109,167.370926 105.907455,130.207672 105.862274,92.589821 
z"/>
<path fill="#5090CE" opacity="1.000000" stroke="none" 
	d="
M419.168396,198.391663 
	C418.988831,180.709137 419.003754,162.724380 419.062775,144.266876 
	C419.999023,153.484390 421.501862,163.168564 421.598206,172.866730 
	C421.681641,181.266068 420.169708,189.681259 419.168396,198.391663 
z"/>
<path fill="#478BCC" opacity="1.000000" stroke="none" 
	d="
M225.607574,201.472046 
	C224.387558,196.160065 222.494431,190.499786 222.159210,184.748718 
	C221.590515,174.992035 221.635361,165.158539 222.152222,155.395966 
	C222.434540,150.063431 224.215012,144.810196 225.600433,139.288727 
	C224.921371,148.723190 223.198456,158.390533 223.203644,168.056946 
	C223.209564,179.066040 224.757431,190.074295 225.607574,201.472046 
z"/>
<path fill="#2E6CA9" opacity="1.000000" stroke="none" 
	d="
M106.300232,301.410583 
	C106.140694,301.011261 106.634102,300.976501 106.880264,300.942261 
	C118.423988,300.928589 129.721558,300.949158 141.481171,300.939636 
	C142.110626,300.929871 142.278000,300.950134 142.697678,300.986938 
	C142.308899,301.348846 141.667389,301.995667 141.026733,301.994843 
	C129.504364,301.979828 117.982079,301.886475 106.300232,301.410583 
z"/>
<path fill="#2671BC" opacity="1.000000" stroke="none" 
	d="
M142.781250,39.587746 
	C142.949493,39.990562 142.464844,39.999260 142.222519,40.010258 
	C130.581635,40.012959 119.183067,40.004662 107.302773,39.988094 
	C107.491386,39.614891 108.162674,38.930607 108.831924,38.932594 
	C120.092438,38.966003 131.352692,39.084957 142.781250,39.587746 
z"/>
<path fill="#3375B6" opacity="1.000000" stroke="none" 
	d="
M381.841095,155.708603 
	C382.239380,154.950470 382.597717,154.637878 382.956055,154.325272 
	C382.884888,163.157730 382.813751,171.990204 382.725220,180.822495 
	C382.725250,180.822800 382.419739,180.874512 382.331116,180.806122 
	C382.212311,180.714432 382.165894,180.528854 381.999023,180.088669 
	C381.873505,171.913879 381.837341,164.034012 381.841095,155.708603 
z"/>
<path fill="#FAFEFE" opacity="1.000000" stroke="none" 
	d="
M378.056274,221.987671 
	C357.470551,259.823425 337.105164,297.353912 316.516205,334.761322 
	C315.551453,336.514099 312.720581,337.751129 310.540222,338.227112 
	C304.118774,339.628937 297.603516,340.639374 291.092529,341.577972 
	C287.356934,342.116486 283.549225,342.133545 279.790283,342.537018 
	C274.504669,343.104431 269.229004,343.773682 263.959625,344.478180 
	C261.553345,344.799866 259.172241,345.309875 255.446838,345.971069 
	C294.037109,297.650848 331.806885,250.480911 379.342194,212.483734 
	C380.035858,212.951385 380.729523,213.419052 381.423187,213.886703 
	C380.359863,216.477310 379.296509,219.067917 378.056274,221.987671 
z"/>
</svg>