<svg xmlns="http://www.w3.org/2000/svg" width="133" height="96" viewBox="0 0 133 96"><title>Asset 16</title><polygon points="133 96 1.32 96 1.32 28.14 17.74 28.14 17.74 75.53 16.05 75.53 16.05 29.83 3.01 29.83 3.01 94.31 131.31 94.31 131.31 12.68 26.22 12.68 26.22 10.99 133 10.99 133 96" fill="#3d7dca"/><path d="M7.43,88.57V83.63h.81v4.94Z" fill="#3d7dca"/><path d="M11.68,88.57l-1.43-4.12h0c0,.61.06,1.19.06,1.72v2.4H9.54V83.63h1.14l1.37,3.93h0l1.42-3.93h1.14v4.94h-.78V86.13c0-.24,0-.56,0-1s0-.63,0-.71h0l-1.48,4.11Z" fill="#3d7dca"/><path d="M19.2,85.13a1.43,1.43,0,0,1-.51,1.18,2.21,2.21,0,0,1-1.44.42h-.51v1.84h-.81V83.63h1.42a2.17,2.17,0,0,1,1.39.38A1.4,1.4,0,0,1,19.2,85.13Zm-2.46.92h.42a1.6,1.6,0,0,0,.92-.22.8.8,0,0,0,.29-.68.77.77,0,0,0-.26-.63,1.31,1.31,0,0,0-.81-.21h-.56Z" fill="#3d7dca"/><path d="M21,86.6v2h-.81V83.63h1.4A2.25,2.25,0,0,1,23,84a1.28,1.28,0,0,1,.46,1.08,1.35,1.35,0,0,1-1,1.32l1.4,2.18H23l-1.18-2Zm0-.67h.56a1.28,1.28,0,0,0,.82-.21.75.75,0,0,0,.25-.62.67.67,0,0,0-.27-.6,1.53,1.53,0,0,0-.83-.18H21Z" fill="#3d7dca"/><path d="M29,86.1a2.69,2.69,0,0,1-.6,1.87,2.17,2.17,0,0,1-1.71.67A2.2,2.2,0,0,1,25,88a2.73,2.73,0,0,1-.6-1.89A2.64,2.64,0,0,1,25,84.21a2.2,2.2,0,0,1,1.72-.65,2.19,2.19,0,0,1,1.7.66A2.72,2.72,0,0,1,29,86.1Zm-3.77,0a2.18,2.18,0,0,0,.37,1.38,1.51,1.51,0,0,0,2.18,0,2.28,2.28,0,0,0,.36-1.39,2.23,2.23,0,0,0-.36-1.38,1.28,1.28,0,0,0-1.08-.47,1.32,1.32,0,0,0-1.1.47A2.16,2.16,0,0,0,25.22,86.1Z" fill="#3d7dca"/><path d="M32.86,83.63h.84L32,88.57h-.85L29.4,83.63h.83l1,3.07c0,.15.11.34.17.57s.1.4.12.52a4.57,4.57,0,0,1,.14-.6l.14-.5Z" fill="#3d7dca"/><path d="M37.15,88.57h-2.8V83.63h2.8v.69h-2v1.34H37v.68H35.16v1.55h2Z" fill="#3d7dca"/><path d="M40.35,88.57l-1.43-4.12h0c0,.61.06,1.19.06,1.72v2.4h-.73V83.63h1.13l1.37,3.93h0l1.41-3.93H43.3v4.94h-.78V86.13c0-.24,0-.56,0-1s0-.63,0-.71h0l-1.49,4.11Z" fill="#3d7dca"/><path d="M47.39,88.57H44.6V83.63h2.79v.69h-2v1.34h1.86v.68H45.41v1.55h2Z" fill="#3d7dca"/><path d="M52.57,88.57h-1l-2.42-3.93h0l0,.22c0,.42,0,.8,0,1.15v2.56h-.73V83.63h1l2.42,3.92h0s0-.24,0-.57,0-.58,0-.76V83.63h.74Z" fill="#3d7dca"/><path d="M55.58,88.57h-.8V84.33H53.32v-.7H57v.7H55.58Z" fill="#3d7dca"/><path d="M61.69,84.26a1.31,1.31,0,0,0-1.09.49,2.08,2.08,0,0,0-.4,1.36,2.18,2.18,0,0,0,.38,1.38,1.36,1.36,0,0,0,1.11.46,3.08,3.08,0,0,0,.61-.06c.2,0,.4-.1.61-.16v.69a3.66,3.66,0,0,1-1.32.22A2.1,2.1,0,0,1,59.93,88a2.71,2.71,0,0,1-.58-1.88,3,3,0,0,1,.28-1.34,2.06,2.06,0,0,1,.81-.89,2.56,2.56,0,0,1,1.26-.31,3.16,3.16,0,0,1,1.4.32l-.29.67a4.81,4.81,0,0,0-.53-.2A1.92,1.92,0,0,0,61.69,84.26Z" fill="#3d7dca"/><path d="M64.78,86.6v2H64V83.63h1.4a2.3,2.3,0,0,1,1.42.36,1.3,1.3,0,0,1,.45,1.08,1.36,1.36,0,0,1-.95,1.32l1.39,2.18h-.92l-1.18-2Zm0-.67h.56a1.28,1.28,0,0,0,.82-.21.75.75,0,0,0,.25-.62.67.67,0,0,0-.27-.6,1.51,1.51,0,0,0-.82-.18h-.54Z" fill="#3d7dca"/><path d="M71.19,88.57H68.4V83.63h2.79v.69h-2v1.34h1.86v.68H69.2v1.55h2Z" fill="#3d7dca"/><path d="M76.27,86.06a2.46,2.46,0,0,1-.68,1.87,2.71,2.71,0,0,1-2,.64H72.26V83.63h1.52a2.56,2.56,0,0,1,1.84.64A2.4,2.4,0,0,1,76.27,86.06Zm-.85,0c0-1.18-.55-1.77-1.66-1.77h-.7v3.58h.58A1.58,1.58,0,0,0,75.42,86.08Z" fill="#3d7dca"/><path d="M77.33,88.57V83.63h.81v4.94Z" fill="#3d7dca"/><path d="M81.15,88.57h-.81V84.33H78.89v-.7H82.6v.7H81.15Z" fill="#3d7dca"/><path d="M87.26,84.26a1.33,1.33,0,0,0-1.1.49,2.63,2.63,0,0,0,0,2.74,1.34,1.34,0,0,0,1.11.46,3.08,3.08,0,0,0,.61-.06l.61-.16v.69a3.66,3.66,0,0,1-1.32.22A2.08,2.08,0,0,1,85.5,88a2.72,2.72,0,0,1-.59-1.88,3,3,0,0,1,.29-1.34,2,2,0,0,1,.81-.89,2.56,2.56,0,0,1,1.26-.31,3.09,3.09,0,0,1,1.39.32l-.29.67a3.65,3.65,0,0,0-.53-.2A1.85,1.85,0,0,0,87.26,84.26Z" fill="#3d7dca"/><path d="M93.93,86.1A2.65,2.65,0,0,1,93.32,88a2.16,2.16,0,0,1-1.7.67A2.2,2.2,0,0,1,89.9,88a2.73,2.73,0,0,1-.6-1.89,2.69,2.69,0,0,1,.6-1.88,2.57,2.57,0,0,1,3.43,0A2.72,2.72,0,0,1,93.93,86.1Zm-3.77,0a2.25,2.25,0,0,0,.36,1.38,1.32,1.32,0,0,0,1.1.47,1.28,1.28,0,0,0,1.08-.46,2.21,2.21,0,0,0,.37-1.39,2.16,2.16,0,0,0-.37-1.38,1.28,1.28,0,0,0-1.08-.47,1.3,1.3,0,0,0-1.09.47A2.16,2.16,0,0,0,90.16,86.1Z" fill="#3d7dca"/><path d="M95,88.57V83.63h.8v4.25h2.1v.69Z" fill="#3d7dca"/><path d="M98.74,88.57V83.63h.8v4.25h2.09v.69Z" fill="#3d7dca"/><path d="M105.28,88.57h-2.79V83.63h2.79v.69h-2v1.34h1.86v.68h-1.86v1.55h2Z" fill="#3d7dca"/><path d="M108.45,84.26a1.33,1.33,0,0,0-1.1.49,2.57,2.57,0,0,0,0,2.74,1.34,1.34,0,0,0,1.11.46,3.08,3.08,0,0,0,.61-.06l.61-.16v.69a3.66,3.66,0,0,1-1.32.22,2.12,2.12,0,0,1-1.67-.66,2.76,2.76,0,0,1-.58-1.88,3,3,0,0,1,.29-1.34,2,2,0,0,1,.81-.89,2.52,2.52,0,0,1,1.25-.31,3.13,3.13,0,0,1,1.4.32l-.29.67a3.65,3.65,0,0,0-.53-.2A1.85,1.85,0,0,0,108.45,84.26Z" fill="#3d7dca"/><path d="M112.44,88.57h-.81V84.33h-1.45v-.7h3.71v.7h-1.45Z" fill="#3d7dca"/><path d="M114.65,88.57V83.63h.8v4.94Z" fill="#3d7dca"/><path d="M121.14,86.1a2.69,2.69,0,0,1-.6,1.87,2.17,2.17,0,0,1-1.71.67,2.22,2.22,0,0,1-1.72-.66,2.73,2.73,0,0,1-.6-1.89,2.69,2.69,0,0,1,.61-1.88,2.56,2.56,0,0,1,3.42,0A2.72,2.72,0,0,1,121.14,86.1Zm-3.77,0a2.18,2.18,0,0,0,.37,1.38,1.51,1.51,0,0,0,2.18,0,2.28,2.28,0,0,0,.36-1.39,2.23,2.23,0,0,0-.36-1.38,1.28,1.28,0,0,0-1.08-.47,1.32,1.32,0,0,0-1.1.47A2.23,2.23,0,0,0,117.37,86.1Z" fill="#3d7dca"/><path d="M126.32,88.57h-1l-2.43-3.93h0l0,.22c0,.42,0,.8,0,1.15v2.56h-.74V83.63h1l2.42,3.92h0s0-.24,0-.57,0-.58,0-.76V83.63h.74Z" fill="#3d7dca"/><path d="M9.71,19.42a9.71,9.71,0,1,1,9.71-9.71A9.73,9.73,0,0,1,9.71,19.42Zm0-17.74a8,8,0,1,0,8,8A8,8,0,0,0,9.71,1.68Z" fill="#3d7dca"/><path d="M50.88,76.19c-13,0-22.38-11.06-22.38-26.3,0-15.73,9-26.3,22.38-26.3,12.17,0,17.57,7.11,20,13.08l-1.56.62c-3.15-7.86-9.51-12-18.4-12-12.57,0-20.69,9.66-20.69,24.61,0,14.26,8.7,24.61,20.69,24.61,9.37,0,15.64-4.13,18.65-12.29l1.58.58C67.88,71.56,60.88,76.19,50.88,76.19Z" fill="#3d7dca"/><path d="M101.47,76.19c-13,0-22.38-11.06-22.38-26.3,0-15.73,9-26.3,22.38-26.3,12.17,0,17.58,7.11,20,13.08l-1.57.62c-3.15-7.86-9.51-12-18.4-12-12.57,0-20.69,9.66-20.69,24.61,0,14.26,8.7,24.61,20.69,24.61,9.37,0,15.64-4.13,18.65-12.29l1.58.58C118.47,71.56,111.47,76.19,101.47,76.19Z" fill="#3d7dca"/></svg>