<svg width="205" height="61" viewBox="0 0 205 61" fill="none" xmlns="http://www.w3.org/2000/svg">
<rect x="0.679688" y="0.623535" width="203" height="59.8766" rx="7.5" stroke="#D4D4D4"/>
<path d="M65.1826 12.9653H67.3994V20.1235H65.1826V12.9653ZM69.0059 12.9653H71.0713L73.7666 16.9253V12.9653H75.8516V20.1235H73.7666L71.0859 16.1929V20.1235H69.0059V12.9653ZM76.9355 17.7554L79.04 17.6235C79.0856 17.9653 79.1784 18.2257 79.3184 18.4048C79.5462 18.6945 79.8717 18.8394 80.2949 18.8394C80.6107 18.8394 80.8532 18.7661 81.0225 18.6196C81.195 18.4699 81.2812 18.2974 81.2812 18.1021C81.2812 17.9165 81.1999 17.7505 81.0371 17.604C80.8743 17.4575 80.4967 17.3192 79.9043 17.189C78.9342 16.9709 78.2425 16.6812 77.8291 16.3198C77.4124 15.9585 77.2041 15.4979 77.2041 14.938C77.2041 14.5701 77.3099 14.2235 77.5215 13.8979C77.7363 13.5692 78.057 13.312 78.4834 13.1265C78.9131 12.9377 79.5007 12.8433 80.2461 12.8433C81.1608 12.8433 81.8574 13.0142 82.3359 13.356C82.8177 13.6945 83.1042 14.2349 83.1953 14.9771L81.1104 15.0991C81.055 14.7769 80.9378 14.5425 80.7588 14.396C80.583 14.2495 80.3389 14.1763 80.0264 14.1763C79.7692 14.1763 79.5755 14.2316 79.4453 14.3423C79.3151 14.4497 79.25 14.5815 79.25 14.7378C79.25 14.8517 79.3037 14.9543 79.4111 15.0454C79.5153 15.1398 79.7627 15.2277 80.1533 15.3091C81.1201 15.5174 81.8118 15.729 82.2285 15.9438C82.6484 16.1554 82.9528 16.4191 83.1416 16.7349C83.3337 17.0506 83.4297 17.4038 83.4297 17.7944C83.4297 18.2534 83.3027 18.6766 83.0488 19.064C82.7949 19.4513 82.4401 19.7459 81.9844 19.9478C81.5286 20.1463 80.9541 20.2456 80.2607 20.2456C79.0433 20.2456 78.2002 20.0112 77.7314 19.5425C77.2627 19.0737 76.9974 18.478 76.9355 17.7554ZM84.2695 16.5493C84.2695 15.3807 84.5951 14.4709 85.2461 13.8198C85.8971 13.1688 86.8037 12.8433 87.9658 12.8433C89.1572 12.8433 90.0752 13.1639 90.7197 13.8052C91.3643 14.4432 91.6865 15.3384 91.6865 16.4907C91.6865 17.3273 91.5449 18.0142 91.2617 18.5513C90.9818 19.0851 90.5749 19.5018 90.041 19.8013C89.5104 20.0975 88.848 20.2456 88.0537 20.2456C87.2464 20.2456 86.5775 20.117 86.0469 19.8599C85.5195 19.6027 85.0915 19.1958 84.7627 18.6392C84.4339 18.0825 84.2695 17.3859 84.2695 16.5493ZM86.4814 16.5591C86.4814 17.2817 86.6149 17.8009 86.8818 18.1167C87.152 18.4325 87.5182 18.5903 87.9805 18.5903C88.4557 18.5903 88.8236 18.4357 89.084 18.1265C89.3444 17.8172 89.4746 17.2622 89.4746 16.4614C89.4746 15.7876 89.3379 15.2961 89.0645 14.9868C88.7943 14.6743 88.4264 14.5181 87.9609 14.5181C87.515 14.5181 87.1569 14.6759 86.8867 14.9917C86.6165 15.3075 86.4814 15.8299 86.4814 16.5591ZM92.8779 12.9653H95.0898V18.3608H98.542V20.1235H92.8779V12.9653ZM98.332 12.9653H100.646L102.258 18.1167L103.845 12.9653H106.091L103.435 20.1235H101.037L98.332 12.9653ZM106.818 12.9653H112.746V14.4937H109.035V15.6313H112.478V17.0913H109.035V18.5024H112.854V20.1235H106.818V12.9653ZM114.064 12.9653H116.13L118.825 16.9253V12.9653H120.91V20.1235H118.825L116.145 16.1929V20.1235H114.064V12.9653ZM121.877 12.9653H128.601V14.7329H126.345V20.1235H124.133V14.7329H121.877V12.9653ZM124.562 20.7144H125.881V21.6714C125.881 22.0229 125.808 22.2996 125.661 22.5015C125.518 22.7065 125.267 22.8872 124.909 23.0435L124.562 22.5356C124.956 22.3599 125.155 22.1369 125.158 21.8667H124.562V20.7144ZM134.011 18.9419H131.491L131.145 20.1235H128.884L131.574 12.9653H133.986L136.677 20.1235H134.362L134.011 18.9419ZM133.547 17.394L132.756 14.8208L131.97 17.394H133.547ZM41.1836 24.9653H44.8604C45.6611 24.9653 46.2601 25.1558 46.6572 25.5366C47.0576 25.9175 47.2578 26.4595 47.2578 27.1626C47.2578 27.8853 47.0397 28.45 46.6035 28.8569C46.1706 29.2638 45.5081 29.4673 44.6162 29.4673H43.4053V32.1235H41.1836V24.9653ZM43.4053 28.0171H43.9473C44.3737 28.0171 44.6732 27.9438 44.8457 27.7974C45.0182 27.6476 45.1045 27.4572 45.1045 27.2261C45.1045 27.0015 45.0296 26.811 44.8799 26.6548C44.7301 26.4985 44.4486 26.4204 44.0352 26.4204H43.4053V28.0171ZM48.415 24.9653H54.3428V26.4937H50.6318V27.6313H54.0742V29.0913H50.6318V30.5024H54.4502V32.1235H48.415V24.9653ZM55.6758 32.1235V24.9653H59.3623C60.0459 24.9653 60.5684 25.0239 60.9297 25.1411C61.291 25.2583 61.5824 25.4764 61.8037 25.7954C62.0251 26.1112 62.1357 26.4969 62.1357 26.9526C62.1357 27.3498 62.0511 27.6932 61.8818 27.9829C61.7126 28.2694 61.4798 28.5021 61.1836 28.6812C60.9948 28.7951 60.736 28.8895 60.4072 28.9644C60.6709 29.0522 60.863 29.1401 60.9834 29.228C61.0648 29.2866 61.182 29.4119 61.335 29.604C61.4912 29.7961 61.5954 29.9442 61.6475 30.0483L62.7168 32.1235H60.2168L59.0352 29.936C58.8854 29.6528 58.752 29.4689 58.6348 29.3843C58.4753 29.2736 58.2946 29.2183 58.0928 29.2183H57.8975V32.1235H55.6758ZM57.8975 27.8657H58.8301C58.931 27.8657 59.1263 27.8332 59.416 27.7681C59.5625 27.7388 59.6813 27.6639 59.7725 27.5435C59.8669 27.423 59.9141 27.2847 59.9141 27.1284C59.9141 26.8973 59.8408 26.7199 59.6943 26.5962C59.5479 26.4725 59.2728 26.4106 58.8691 26.4106H57.8975V27.8657ZM63.0439 29.7554L65.1484 29.6235C65.194 29.9653 65.2868 30.2257 65.4268 30.4048C65.6546 30.6945 65.9801 30.8394 66.4033 30.8394C66.7191 30.8394 66.9616 30.7661 67.1309 30.6196C67.3034 30.4699 67.3896 30.2974 67.3896 30.1021C67.3896 29.9165 67.3083 29.7505 67.1455 29.604C66.9827 29.4575 66.6051 29.3192 66.0127 29.189C65.0426 28.9709 64.3509 28.6812 63.9375 28.3198C63.5208 27.9585 63.3125 27.4979 63.3125 26.938C63.3125 26.5701 63.4183 26.2235 63.6299 25.8979C63.8447 25.5692 64.1654 25.312 64.5918 25.1265C65.0215 24.9377 65.609 24.8433 66.3545 24.8433C67.2692 24.8433 67.9658 25.0142 68.4443 25.356C68.9261 25.6945 69.2126 26.2349 69.3037 26.9771L67.2188 27.0991C67.1634 26.7769 67.0462 26.5425 66.8672 26.396C66.6914 26.2495 66.4473 26.1763 66.1348 26.1763C65.8776 26.1763 65.6839 26.2316 65.5537 26.3423C65.4235 26.4497 65.3584 26.5815 65.3584 26.7378C65.3584 26.8517 65.4121 26.9543 65.5195 27.0454C65.6237 27.1398 65.8711 27.2277 66.2617 27.3091C67.2285 27.5174 67.9202 27.729 68.3369 27.9438C68.7568 28.1554 69.0612 28.4191 69.25 28.7349C69.4421 29.0506 69.5381 29.4038 69.5381 29.7944C69.5381 30.2534 69.4111 30.6766 69.1572 31.064C68.9033 31.4513 68.5485 31.7459 68.0928 31.9478C67.637 32.1463 67.0625 32.2456 66.3691 32.2456C65.1517 32.2456 64.3086 32.0112 63.8398 31.5425C63.3711 31.0737 63.1058 30.478 63.0439 29.7554ZM70.3779 28.5493C70.3779 27.3807 70.7035 26.4709 71.3545 25.8198C72.0055 25.1688 72.9121 24.8433 74.0742 24.8433C75.2656 24.8433 76.1836 25.1639 76.8281 25.8052C77.4727 26.4432 77.7949 27.3384 77.7949 28.4907C77.7949 29.3273 77.6533 30.0142 77.3701 30.5513C77.0902 31.0851 76.6833 31.5018 76.1494 31.8013C75.6188 32.0975 74.9564 32.2456 74.1621 32.2456C73.3548 32.2456 72.6859 32.117 72.1553 31.8599C71.6279 31.6027 71.1999 31.1958 70.8711 30.6392C70.5423 30.0825 70.3779 29.3859 70.3779 28.5493ZM72.5898 28.5591C72.5898 29.2817 72.7233 29.8009 72.9902 30.1167C73.2604 30.4325 73.6266 30.5903 74.0889 30.5903C74.5641 30.5903 74.932 30.4357 75.1924 30.1265C75.4528 29.8172 75.583 29.2622 75.583 28.4614C75.583 27.7876 75.4463 27.2961 75.1729 26.9868C74.9027 26.6743 74.5348 26.5181 74.0693 26.5181C73.6234 26.5181 73.2653 26.6759 72.9951 26.9917C72.7249 27.3075 72.5898 27.8299 72.5898 28.5591ZM83.0488 30.9419H80.5293L80.1826 32.1235H77.9219L80.6123 24.9653H83.0244L85.7148 32.1235H83.4004L83.0488 30.9419ZM82.585 29.394L81.7939 26.8208L81.0078 29.394H82.585ZM86.4424 24.9653H88.5078L91.2031 28.9253V24.9653H93.2881V32.1235H91.2031L88.5225 28.1929V32.1235H86.4424V24.9653ZM94.7529 24.9653H100.681V26.4937H96.9697V27.6313H100.412V29.0913H96.9697V30.5024H100.788V32.1235H94.7529V24.9653ZM101.984 24.9653H104.196V30.3608H107.648V32.1235H101.984V24.9653ZM108.2 28.5493C108.2 27.3807 108.526 26.4709 109.177 25.8198C109.828 25.1688 110.734 24.8433 111.896 24.8433C113.088 24.8433 114.006 25.1639 114.65 25.8052C115.295 26.4432 115.617 27.3384 115.617 28.4907C115.617 29.3273 115.476 30.0142 115.192 30.5513C114.912 31.0851 114.506 31.5018 113.972 31.8013C113.441 32.0975 112.779 32.2456 111.984 32.2456C111.177 32.2456 110.508 32.117 109.978 31.8599C109.45 31.6027 109.022 31.1958 108.693 30.6392C108.365 30.0825 108.2 29.3859 108.2 28.5493ZM110.412 28.5591C110.412 29.2817 110.546 29.8009 110.812 30.1167C111.083 30.4325 111.449 30.5903 111.911 30.5903C112.386 30.5903 112.754 30.4357 113.015 30.1265C113.275 29.8172 113.405 29.2622 113.405 28.4614C113.405 27.7876 113.269 27.2961 112.995 26.9868C112.725 26.6743 112.357 26.5181 111.892 26.5181C111.446 26.5181 111.088 26.6759 110.817 26.9917C110.547 27.3075 110.412 27.8299 110.412 28.5591ZM116.838 32.1235V24.9653H120.524C121.208 24.9653 121.73 25.0239 122.092 25.1411C122.453 25.2583 122.744 25.4764 122.966 25.7954C123.187 26.1112 123.298 26.4969 123.298 26.9526C123.298 27.3498 123.213 27.6932 123.044 27.9829C122.875 28.2694 122.642 28.5021 122.346 28.6812C122.157 28.7951 121.898 28.8895 121.569 28.9644C121.833 29.0522 122.025 29.1401 122.146 29.228C122.227 29.2866 122.344 29.4119 122.497 29.604C122.653 29.7961 122.757 29.9442 122.81 30.0483L123.879 32.1235H121.379L120.197 29.936C120.048 29.6528 119.914 29.4689 119.797 29.3843C119.637 29.2736 119.457 29.2183 119.255 29.2183H119.06V32.1235H116.838ZM119.06 27.8657H119.992C120.093 27.8657 120.288 27.8332 120.578 27.7681C120.725 27.7388 120.843 27.6639 120.935 27.5435C121.029 27.423 121.076 27.2847 121.076 27.1284C121.076 26.8973 121.003 26.7199 120.856 26.5962C120.71 26.4725 120.435 26.4106 120.031 26.4106H119.06V27.8657ZM127.941 24.9653H133.41V26.5034H130.163V27.7534H132.937V29.1987H130.163V32.1235H127.941V24.9653ZM134.689 24.9653H136.906V32.1235H134.689V24.9653ZM138.317 24.9653H144.577V26.396L140.563 30.5854H144.724V32.1235H137.932V30.6392L141.901 26.4937H138.317V24.9653ZM145.812 24.9653H148.029V32.1235H145.812V24.9653ZM154.387 29.1987L156.325 29.7847C156.195 30.3283 155.99 30.7824 155.71 31.147C155.43 31.5116 155.082 31.7866 154.665 31.9722C154.252 32.1577 153.724 32.2505 153.083 32.2505C152.305 32.2505 151.669 32.1382 151.174 31.9136C150.682 31.6857 150.257 31.2869 149.899 30.7173C149.541 30.1476 149.362 29.4185 149.362 28.5298C149.362 27.3449 149.676 26.4351 150.305 25.8003C150.936 25.1623 151.828 24.8433 152.98 24.8433C153.882 24.8433 154.59 25.0256 155.104 25.3901C155.622 25.7547 156.006 26.3146 156.257 27.0698L154.304 27.5044C154.235 27.2863 154.164 27.1268 154.089 27.0259C153.965 26.8566 153.814 26.7264 153.635 26.6353C153.456 26.5441 153.256 26.4985 153.034 26.4985C152.533 26.4985 152.149 26.7004 151.882 27.104C151.68 27.4035 151.579 27.8739 151.579 28.5151C151.579 29.3094 151.7 29.8547 151.94 30.1509C152.181 30.4438 152.52 30.5903 152.956 30.5903C153.379 30.5903 153.698 30.4715 153.913 30.2339C154.131 29.9963 154.289 29.6512 154.387 29.1987ZM157.399 24.9653H163.327V26.4937H159.616V27.6313H163.059V29.0913H159.616V30.5024H163.435V32.1235H157.399V24.9653Z" fill="#292B6E"/>
<path fill-rule="evenodd" clip-rule="evenodd" d="M82.4134 37.1281H121.942C123.344 37.0673 124.712 37.6149 125.747 38.6516C126.782 39.6884 127.401 41.1304 127.469 42.6639V45.4598C127.401 46.9933 126.782 48.4353 125.747 49.472C124.712 50.5088 123.344 51.0563 121.942 50.9956H82.4134C81.0115 51.0557 79.6446 50.5078 78.61 49.4711C77.5754 48.4344 76.9568 46.9928 76.8887 45.4598V42.6639C76.9568 41.1308 77.5754 39.6892 78.61 38.6526C79.6446 37.6159 81.0115 37.068 82.4134 37.1281Z" fill="#292B6E"/>
<path d="M118.557 40.9506H120.467V47.1761H118.557V40.9506ZM115.203 40.9506H117.113V47.1761H115.214L115.203 40.9506ZM109.377 40.9506H111.282V45.6416H114.259V47.1761H109.377V40.955V40.9506ZM106.069 44.7977L105.39 42.5596L104.714 44.7977H106.076H106.069ZM106.468 46.1414H104.294L103.993 47.1673H102.047L104.366 40.9506H106.446L108.765 47.1761H106.768L106.464 46.1502L106.468 46.1414ZM96.6038 40.9506H102.397V42.485H100.451V47.1761H98.5459V42.4894H96.6038V40.9506ZM90.8101 40.9506H95.9242V42.2812H92.726V43.2698H95.694V44.5412H92.726V45.7666H96.0141V47.1761H90.8101V40.955V40.9506ZM86.0402 42.3579V45.7556H86.507C86.796 45.7741 87.0855 45.7292 87.3554 45.6241C87.5376 45.5196 87.6774 45.3543 87.75 45.1572C87.8632 44.8087 87.9107 44.4423 87.8903 44.0765C87.9398 43.6027 87.8278 43.1261 87.5724 42.724C87.4323 42.5904 87.2649 42.4887 87.0817 42.4258C86.8986 42.363 86.7041 42.3406 86.5114 42.3601H86.0357L86.0402 42.3579ZM84.1352 40.9506H86.9674C87.4284 40.9318 87.8884 41.0064 88.3199 41.1698C88.6536 41.316 88.9464 41.5418 89.1726 41.8274C89.401 42.1239 89.5679 42.463 89.6636 42.8248C89.7648 43.2179 89.8149 43.6224 89.8127 44.0283C89.8385 44.5534 89.7642 45.0786 89.5935 45.5759C89.4549 45.9252 89.2408 46.2396 88.9666 46.4965C88.7262 46.73 88.4318 46.9002 88.1095 46.9919C87.74 47.0977 87.3582 47.1545 86.974 47.1607H84.1309L84.1352 40.9506Z" fill="white"/>
</svg>
